HIERARCHY
ROOT hip
{
  OFFSET 0 0 0
  CHANNELS 6 Xposition Yposition Zposition Zrotation Yrotation Xrotation
  JOINT abdomen
  {
    OFFSET 0 20.6881 -0.73152
    CHANNELS 3 Zrotation Xrotation Yrotation
    JOINT chest
    {
      OFFSET 0 11.7043 -0.48768
      CHANNELS 3 Zrotation Xrotation Yrotation
      JOINT neck
      {
        OFFSET 0 22.1894 -2.19456
        CHANNELS 3 Zrotation Xrotation Yrotation
        JOINT head
        {
          OFFSET -0.24384 7.07133 1.2192
          CHANNELS 3 Zrotation Xrotation Yrotation
          JOINT leftEye
          {
            OFFSET 4.14528 8.04674 8.04672
            CHANNELS 3 Zrotation Xrotation Yrotation
            End Site
            {
              OFFSET 1 0 0
            }
          }
          JOINT rightEye
          {
            OFFSET -3.6576 8.04674 8.04672
            CHANNELS 3 Zrotation Xrotation Yrotation
            End Site
            {
              OFFSET 1 0 0
            }
          }
        }
      }
      JOINT rCollar
      {
        OFFSET -2.68224 19.2634 -4.8768
        CHANNELS 3 Zrotation Xrotation Yrotation
        JOINT rShldr
        {
          OFFSET -8.77824 -1.95073 1.46304
          CHANNELS 3 Zrotation Xrotation Yrotation
          JOINT rForeArm
          {
            OFFSET -28.1742 -1.7115 0.48768
            CHANNELS 3 Zrotation Xrotation Yrotation
            JOINT rHand
            {
              OFFSET -22.5879 0.773209 7.07136
              CHANNELS 3 Zrotation Xrotation Yrotation
              JOINT rThumb1
              {
                OFFSET -1.2192 -0.487915 3.41376
                CHANNELS 3 Zrotation Xrotation Yrotation
                JOINT rThumb2
                {
                  OFFSET -3.37035 -0.52449 3.41376
                  CHANNELS 3 Zrotation Xrotation Yrotation
                  End Site
                  {
                    OFFSET -1.78271 -1.18214 1.43049
                  }
                }
              }
              JOINT rIndex1
              {
                OFFSET -7.75947 0.938293 5.60832
                CHANNELS 3 Zrotation Xrotation Yrotation
                JOINT rIndex2
                {
                  OFFSET -2.54057 -0.884171 1.56538
                  CHANNELS 3 Zrotation Xrotation Yrotation
                  End Site
                  {
                    OFFSET -1.62519 -0.234802 1.16502
                  }
                }
              }
              JOINT rMid1
              {
                OFFSET -8.24714 1.18213 3.41376
                CHANNELS 3 Zrotation Xrotation Yrotation
                JOINT rMid2
                {
                  OFFSET -3.10165 -0.590103 1.0647
                  CHANNELS 3 Zrotation Xrotation Yrotation
                  End Site
                  {
                    OFFSET -2.48547 -0.328903 0.83742
                  }
                }
              }
              JOINT rRing1
              {
                OFFSET -8.82822 0.546677 1.51678
                CHANNELS 3 Zrotation Xrotation Yrotation
                JOINT rRing2
                {
                  OFFSET -2.60934 -0.819778 -0.0198488
                  CHANNELS 3 Zrotation Xrotation Yrotation
                  End Site
                  {
                    OFFSET -2.33842 -0.294052 0.168128
                  }
                }
              }
              JOINT rPinky1
              {
                OFFSET -8.27202 -0.0477905 -0.4584
                CHANNELS 3 Zrotation Xrotation Yrotation
                JOINT rPinky2
                {
                  OFFSET -1.82734 -0.647385 -0.700984
                  CHANNELS 3 Zrotation Xrotation Yrotation
                  End Site
                  {
                    OFFSET -1.69225 -0.51767 -0.607171
                  }
                }
              }
            }
          }
        }
      }
      JOINT lCollar
      {
        OFFSET 2.68224 19.2634 -4.8768
        CHANNELS 3 Zrotation Xrotation Yrotation
        JOINT lShldr
        {
          OFFSET 8.77824 -1.95073 1.46304
          CHANNELS 3 Zrotation Xrotation Yrotation
          JOINT lForeArm
          {
            OFFSET 28.1742 -1.7115 0.48768
            CHANNELS 3 Zrotation Xrotation Yrotation
            JOINT lHand
            {
              OFFSET 22.5879 0.773209 7.07136
              CHANNELS 3 Zrotation Xrotation Yrotation
              JOINT lThumb1
              {
                OFFSET 1.2192 -0.487915 3.41376
                CHANNELS 3 Zrotation Xrotation Yrotation
                JOINT lThumb2
                {
                  OFFSET 3.37035 -0.52449 3.41376
                  CHANNELS 3 Zrotation Xrotation Yrotation
                  End Site
                  {
                    OFFSET 1.78271 -1.18214 1.43049
                  }
                }
              }
              JOINT lIndex1
              {
                OFFSET 7.75947 0.938293 5.60832
                CHANNELS 3 Zrotation Xrotation Yrotation
                JOINT lIndex2
                {
                  OFFSET 2.54057 -0.884171 1.56538
                  CHANNELS 3 Zrotation Xrotation Yrotation
                  End Site
                  {
                    OFFSET 1.62519 -0.234802 1.16502
                  }
                }
              }
              JOINT lMid1
              {
                OFFSET 8.24714 1.18213 3.41376
                CHANNELS 3 Zrotation Xrotation Yrotation
                JOINT lMid2
                {
                  OFFSET 3.10165 -0.590103 1.0647
                  CHANNELS 3 Zrotation Xrotation Yrotation
                  End Site
                  {
                    OFFSET 2.48547 -0.328903 0.83742
                  }
                }
              }
              JOINT lRing1
              {
                OFFSET 8.82822 0.546677 1.51678
                CHANNELS 3 Zrotation Xrotation Yrotation
                JOINT lRing2
                {
                  OFFSET 2.60934 -0.819778 -0.0198488
                  CHANNELS 3 Zrotation Xrotation Yrotation
                  End Site
                  {
                    OFFSET 2.33842 -0.294052 0.168128
                  }
                }
              }
              JOINT lPinky1
              {
                OFFSET 8.27202 -0.0477905 -0.4584
                CHANNELS 3 Zrotation Xrotation Yrotation
                JOINT lPinky2
                {
                  OFFSET 1.82734 -0.647385 -0.700984
                  CHANNELS 3 Zrotation Xrotation Yrotation
                  End Site
                  {
                    OFFSET 1.69225 -0.51767 -0.607171
                  }
                }
              }
            }
          }
        }
      }
    }
  }
  JOINT rButtock
  {
    OFFSET -8.77824 4.35084 1.2192
    CHANNELS 3 Zrotation Xrotation Yrotation
    JOINT rThigh
    {
      OFFSET 0 -1.70687 -2.19456
      CHANNELS 3 Zrotation Xrotation Yrotation
      JOINT rShin
      {
        OFFSET 0 -36.8199 0.73152
        CHANNELS 3 Zrotation Xrotation Yrotation
        JOINT rFoot
        {
          OFFSET 0.73152 -45.1104 -5.12064
          CHANNELS 3 Zrotation Xrotation Yrotation
          End Site
          {
            OFFSET -1.1221 -3.69964 12.103
          }
        }
      }
    }
  }
  JOINT lButtock
  {
    OFFSET 8.77824 4.35084 1.2192
    CHANNELS 3 Zrotation Xrotation Yrotation
    JOINT lThigh
    {
      OFFSET 0 -1.70687 -2.19456
      CHANNELS 3 Zrotation Xrotation Yrotation
      JOINT lShin
      {
        OFFSET 0 -36.8199 0.73152
        CHANNELS 3 Zrotation Xrotation Yrotation
        JOINT lFoot
        {
          OFFSET -0.73152 -45.1104 -5.12064
          CHANNELS 3 Zrotation Xrotation Yrotation
          End Site
          {
            OFFSET 1.1221 -3.69964 12.103
          }
        }
      }
    }
  }
}
MOTION
Frames:	4
Frame Time:	0.00833333
-8.5869 80.2288 -3.5331 60.683832 -87.759198 -52.194411 -6.101562 -7.126098 -0.0 0.043225 -8.748175 -6.982322 10.348811 36.295674 83.479029 -39.192373 -2.279947 -153.134227 -0.000252 0.0 -0.000143 0.00085 0.0 0.001584 2.459492 -18.216354 -3.669457 58.391181 -20.872886 34.589127 172.109107 25.143484 54.002357 174.691878 -9.256244 144.163574 78.938295 -49.641525 30.622862 -157.927884 -28.197025 127.706289 -151.355103 -17.157885 121.133029 145.183343 -67.163661 87.067723 -159.366186 -2.685432 142.597077 -18.259287 42.12207 14.877286 0.001506 0.063493 0.021416 9.750931 7.248808 0.882047 -144.109357 8.781555 -140.875123 54.63641 81.915055 -17.488166 130.419862 54.549007 -134.287337 104.195643 2.453679 -88.385888 158.240022 40.507184 75.219735 3.302781 26.006452 -2.370615 78.030599 38.689717 -42.41258 154.141784 -35.076207 -82.831034 46.208098 39.653529 -36.317743 161.230407 -6.089879 -111.921327 36.037302 51.722443 -29.833398 163.265135 -5.276313 -143.307654 145.119171 0.18459 179.188235 54.920854 87.57918 -68.121588 -0.098969 0.258623 -0.089102 156.036862 43.505295 149.204811 179.9969 75.749752 0.001587 -163.668494 43.700878 -0.0 24.651606 28.547227 22.633367 174.202411 -65.904385 83.785221 179.960356 75.749829 0.032618 -169.580394 40.485488 164.186331 -8.995294 -77.861606 -131.230888 -99.931639 31.132304 29.836638
-9.5792 79.8647 -4.0258 164.427603 -85.007448 -155.385708 -4.426974 -7.73206 -46.909547 5.405611 -6.03551 39.659809 -5.306428 48.031228 -146.610267 18.717247 49.726346 72.557449 -0.002031 -0.0 0.000897 -0.003104 -0.0 0.000123 0.117608 -0.714145 -0.157392 42.133309 -9.851873 44.650573 164.891881 55.901746 64.756113 176.411904 -6.652638 144.027148 -171.603326 -9.28622 89.950325 -137.969205 9.877373 69.358933 -145.905787 -7.259532 118.950782 -6.041142 27.877563 -1.771316 -10.97707 25.78973 7.639781 144.656598 -74.668014 112.796312 -73.164557 -72.142078 -90.198306 -78.871662 83.209447 96.716953 -125.808223 -27.877345 -123.551291 -127.511081 -27.96139 -125.799482 6.035366 25.578562 -7.226098 -82.848346 24.195075 -6.408039 8.394033 -28.392098 -112.865852 4.254467 28.79224 -2.455433 -4.65462 -4.638351 0.530156 123.864469 -12.662596 -111.690905 39.68891 37.280246 -30.591218 1.585822 12.374479 -0.547663 -10.383153 -32.500336 3.2613 -10.14062 -21.571627 1.530299 69.840468 -72.12198 86.715081 -14.075213 26.542974 0.962312 26.563185 -38.861376 25.605284 167.790696 73.100898 146.890339 179.999477 75.749841 0.000539 -163.114441 42.110518 155.644861 2.420474 -39.357768 137.674532 23.908363 -3.031756 37.033552 179.998405 75.751647 0.001313 -169.948314 40.215305 -15.351522 -19.667678 72.834344 -19.383044 69.622097 35.732806 -14.118139
-10.5112 79.618 -4.4594000000000005 175.632976 -78.874901 -166.023011 -4.88125 -7.226126 -34.174061 5.283018 -6.682139 26.171446 12.151774 34.82789 76.412928 -36.952307 -5.634024 -152.959415 -3.6e-05 0.0 -0.00299 -3.6e-05 0.0 -0.00299 -155.57814 -3.999367 161.941662 -10.58932 -3.226747 -31.760258 -7.717999 -63.144271 -139.230214 172.528177 -21.697564 142.934851 71.831049 -48.263616 25.792003 -160.54594 -63.790455 143.715427 179.289462 -59.501329 116.315562 -130.304629 30.750636 107.624738 -42.118558 54.613774 35.541848 3.265022 0.431604 0.139282 0.003916 0.876342 0.276066 6.077113 33.720445 5.588906 -25.51578 -38.071183 -24.579456 -80.096312 -54.189454 -80.41956 85.5377 68.18267 -88.688864 -72.667118 3.113026 -66.467472 -169.927821 41.617735 -34.534677 -163.969133 -20.985146 -144.697539 103.198908 36.330437 -60.111512 -172.629157 -40.431231 -75.12224 2.687234 4.226394 -1.584233 158.648807 -8.8184 -110.053594 -153.672383 -76.484466 -121.221599 154.1823 19.99844 -138.473454 0.023678 -1.725962 0.542973 155.970855 -13.748969 -173.487475 80.505714 -51.275848 78.928475 -16.471347 41.98075 -7.235251 -0.005457 -0.001366 -0.002728 16.687063 -29.645915 -97.785246 -43.823374 -6.443714 -0.013595 164.315635 -30.163523 -91.553524 0.000525 0.000611 -0.000676 8.426247 -37.059832 5.235504 17.792268 73.408117 -55.948735 102.149802 26.556856 -37.051005
-11.427 79.5021 -4.886299999999999 179.430288 -72.030085 -169.24695 -4.060154 -10.646269 -130.938384 3.220694 3.975407 122.205142 -4.772033 29.69646 -16.530351 25.516938 -24.760775 -49.378189 0.00317 -0.0 -0.00098 0.002799 0.0 0.004633 -143.62048 38.233216 148.080147 82.636488 82.154934 -109.896891 169.415729 -54.080788 37.490988 179.095069 -5.198428 143.495956 -2.607756 2.55484 0.457556 1.943755 -1.768161 0.16779 -138.494204 4.895539 114.863098 -119.699384 45.768209 94.985268 -89.834563 60.701507 81.263019 32.412446 -62.613037 8.641472 -74.841726 72.960874 92.828033 -60.48611 -82.102221 -77.477099 -80.937421 -51.228032 -79.360382 3.419827 0.003539 -0.963674 -0.058395 -0.352854 0.078237 91.708254 -2.579085 158.666366 -174.986997 -18.96973 65.112227 15.207539 53.344858 -6.85269 0.490768 0.484984 -0.077968 37.286395 26.030058 -33.582475 151.3516 -17.158755 -121.133374 -82.529011 -69.224987 -30.769475 8.304177 20.652944 -5.560334 42.025104 58.556808 -36.136156 75.673352 -72.116603 92.828781 143.524814 62.582039 -163.104636 153.293154 41.648665 148.34066 6.359547 -17.355222 8.648833 -0.000428 0.001893 0.000551 15.812104 -27.455056 17.071476 25.330303 31.040626 31.702394 -45.659412 35.770046 -31.298365 -179.997954 75.749284 0.0 -171.759177 35.866878 -39.373267 -79.077092 68.461244 -135.759386 -98.931616 -30.01272 158.793596
